<?xml version="1.0" encoding="UTF-8" standalone="no"?>
<!DOCTYPE svg PUBLIC "-//W3C//DTD SVG 1.1//EN" "http://www.w3.org/Graphics/SVG/1.1/DTD/svg11.dtd">
<svg version="1.1" xmlns:dc="http://purl.org/dc/elements/1.1/" xmlns:xl="http://www.w3.org/1999/xlink" xmlns="http://www.w3.org/2000/svg" viewBox="615.1798 1197.5635 68.93406 67.56755" width="68.93406" height="67.56755">
  <defs/>
  <g id="Canvas_1" fill="none" stroke="none" stroke-opacity="1" fill-opacity="1" stroke-dasharray="none">
    <title>Canvas 1</title>
    <rect fill="white" x="615.1798" y="1197.5635" width="68.93406" height="67.56755"/>
    <g id="Canvas_1_Layer_1">
      <title>Layer 1</title>
      <g id="Group_743">
        <g id="Graphic_751">
          <title>Label</title>
          <path d="M 639.2064 1221.2348 C 638.6152 1220.3973 637.6298 1219.8553 636.5295 1219.8553 L 618.4643 1219.8717 C 616.6578 1219.8717 615.1798 1221.3334 615.1798 1223.1399 L 615.1798 1239.5627 C 615.1798 1241.3692 616.6578 1242.8309 618.4643 1242.8309 L 636.5295 1242.8473 C 637.6298 1242.8473 638.6152 1242.3053 639.2064 1241.4678 L 646.3832 1231.3513 L 639.2064 1221.2348 Z" fill="#62cc6c"/>
        </g>
        <g id="Graphic_750">
          <title>Label</title>
          <path d="M 660.0872 1241.4678 C 660.6784 1242.3053 661.6638 1242.8473 662.7641 1242.8473 L 680.82926 1242.8309 C 682.6358 1242.8309 684.1138 1241.3692 684.1138 1239.5627 L 684.1138 1223.1399 C 684.1138 1221.3334 682.6358 1219.8717 680.82926 1219.8717 L 662.7641 1219.8553 C 661.6638 1219.8553 660.6784 1220.3973 660.0872 1221.2348 L 652.9104 1231.3513 L 660.0872 1241.4678 Z" fill="#ff4550"/>
        </g>
        <g id="Graphic_749">
          <title>Label</title>
          <path d="M 659.75294 1221.5902 C 660.5905 1220.999 661.13246 1220.0136 661.13246 1218.9132 L 661.116 1200.8481 C 661.116 1199.0416 659.6544 1197.5635 657.8479 1197.5635 L 641.42505 1197.5635 C 639.6185 1197.5635 638.1569 1199.0416 638.1569 1200.8481 L 638.1405 1218.9132 C 638.1405 1220.0136 638.6824 1220.999 639.52 1221.5902 L 649.6365 1228.767 L 659.75294 1221.5902 Z" fill="#009cd4"/>
        </g>
        <g id="Graphic_748">
          <title>Label</title>
          <path d="M 639.52 1241.1045 C 638.6824 1241.6957 638.1405 1242.681 638.1405 1243.7814 L 638.1569 1261.8465 C 638.1569 1263.653 639.6185 1265.1311 641.42505 1265.1311 L 657.8479 1265.1311 C 659.6544 1265.1311 661.116 1263.653 661.116 1261.8465 L 661.13246 1243.7814 C 661.13246 1242.681 660.5905 1241.6957 659.75294 1241.1045 L 649.6365 1233.9277 L 639.52 1241.1045 Z" fill="#ffd156"/>
        </g>
        <g id="Graphic_747">
          <path d="M 673.7309 1227.831 L 678.98254 1230.4569 C 679.4765 1230.7038 679.67675 1231.3045 679.42976 1231.7985 C 679.333 1231.992 679.1761 1232.149 678.98254 1232.2457 L 673.7309 1234.8715 C 673.2369 1235.1185 672.63626 1234.9183 672.3893 1234.4243 C 672.3198 1234.2855 672.2837 1234.1324 672.2837 1233.9771 L 672.2837 1228.7255 C 672.2837 1228.1732 672.7314 1227.7255 673.2837 1227.7255 C 673.4389 1227.7255 673.59205 1227.7616 673.7309 1227.831 Z" fill="white"/>
        </g>
        <g id="Graphic_746">
          <path d="M 653.1567 1255.2757 L 650.5309 1260.5273 C 650.2839 1261.0213 649.6832 1261.2215 649.18926 1260.9746 C 648.9957 1260.8778 648.8388 1260.7209 648.74204 1260.5273 L 646.1162 1255.2757 C 645.8692 1254.7817 646.06946 1254.181 646.5634 1253.934 C 646.7023 1253.8646 646.8554 1253.8285 647.01065 1253.8285 L 652.2623 1253.8285 C 652.8146 1253.8285 653.2623 1254.2762 653.2623 1254.8285 C 653.2623 1254.9837 653.22614 1255.1368 653.1567 1255.2757 Z" fill="white"/>
        </g>
        <g id="Graphic_745">
          <path d="M 625.0556 1234.8715 L 619.80394 1232.2457 C 619.30996 1231.9987 619.1097 1231.398 619.3567 1230.9041 C 619.4535 1230.7105 619.6104 1230.5536 619.80394 1230.4569 L 625.0556 1227.831 C 625.54955 1227.584 626.1502 1227.7843 626.3972 1228.2783 C 626.46664 1228.4171 626.5028 1228.5702 626.5028 1228.7255 L 626.5028 1233.9771 C 626.5028 1234.5294 626.0551 1234.9771 625.5028 1234.9771 C 625.34754 1234.9771 625.1944 1234.941 625.0556 1234.8715 Z" fill="white"/>
        </g>
        <g id="Graphic_744">
          <path d="M 646.1162 1207.4269 L 648.74204 1202.1752 C 648.989 1201.6813 649.5897 1201.481 650.0837 1201.728 C 650.2772 1201.8248 650.4341 1201.9817 650.5309 1202.1752 L 653.1567 1207.4269 C 653.4037 1207.9208 653.2035 1208.5215 652.7095 1208.7685 C 652.57065 1208.838 652.4175 1208.8741 652.2623 1208.8741 L 647.01065 1208.8741 C 646.4584 1208.8741 646.01065 1208.4264 646.01065 1207.8741 C 646.01065 1207.7188 646.0468 1207.5657 646.1162 1207.4269 Z" fill="white"/>
        </g>
      </g>
    </g>
  </g>
</svg>
